<svg width="86" height="68" viewBox="0 0 86 68" fill="none" xmlns="http://www.w3.org/2000/svg">
<g clip-path="url(#clip0_11_3)">
<path fill-rule="evenodd" clip-rule="evenodd" d="M40.9227 0.330854C17.9427 1.44021 0.26062 21.7492 0.26062 45.3525V60.9745C0.26062 64.7004 3.20544 67.7183 6.83387 67.7183H79.1396C82.7713 67.7183 85.7128 64.7004 85.7128 60.9745V44.115C85.7128 19.2034 65.4574 -0.856055 40.9227 0.330854Z" fill="#BEBEBE"/>
<path fill-rule="evenodd" clip-rule="evenodd" d="M44.6313 0.368652V13.7686H73.7738C66.3559 5.84799 56.0721 0.817115 44.6313 0.368652Z" fill="#2980B9"/>
<path fill-rule="evenodd" clip-rule="evenodd" d="M41.3448 0.368652C29.904 0.817115 19.6202 5.84799 12.2023 13.7686H41.3448V0.368652Z" fill="#2980B9"/>
<path fill-rule="evenodd" clip-rule="evenodd" d="M58.9183 40.7437H40.2043C38.2027 40.7437 36.6679 38.9262 36.9505 36.8963L39.2971 20.0368C39.5305 18.3745 40.9175 17.1404 42.5509 17.1404H56.5716C58.2051 17.1404 59.5921 18.3745 59.8254 20.0368L62.1721 36.8963C62.4547 38.9262 60.9199 40.7437 58.9183 40.7437Z" fill="#2980B9"/>
<path fill-rule="evenodd" clip-rule="evenodd" d="M57.7778 28.9422C57.7778 33.5988 54.1001 37.372 49.5613 37.372C45.0225 37.372 41.3447 33.5988 41.3447 28.9422C41.3447 24.2856 45.0225 20.5125 49.5613 20.5125C54.1001 20.5125 57.7778 24.2856 57.7778 28.9422Z" fill="#323232"/>
<path fill-rule="evenodd" clip-rule="evenodd" d="M51.2046 27.2562C51.2046 29.1175 49.7322 30.6281 47.918 30.6281C46.1038 30.6281 44.6313 29.1175 44.6313 27.2562C44.6313 25.3949 46.1038 23.8843 47.918 23.8843C49.7322 23.8843 51.2046 25.3949 51.2046 27.2562Z" fill="white"/>
<path fill-rule="evenodd" clip-rule="evenodd" d="M23.2693 47.4875H33.1292V40.7437H23.2693V47.4875Z" fill="#505050"/>
<path fill-rule="evenodd" clip-rule="evenodd" d="M23.2693 54.2314H33.1292V47.4875H23.2693V54.2314Z" fill="#505050"/>
<path fill-rule="evenodd" clip-rule="evenodd" d="M62.7088 54.2314H46.2756V44.1157H62.7088V54.2314Z" fill="#2980B9"/>
<path fill-rule="evenodd" clip-rule="evenodd" d="M42.989 54.2314H36.4158V44.1157H42.989V54.2314Z" fill="#2980B9"/>
<path fill-rule="evenodd" clip-rule="evenodd" d="M0.262085 60.9751C0.262085 61.845 0.436276 62.6711 0.728786 63.4332H85.2476C85.5401 62.6711 85.7143 61.845 85.7143 60.9751V57.9539H0.262085V60.9751Z" fill="#2980B9"/>
<path fill-rule="evenodd" clip-rule="evenodd" d="M19.9818 40.7437H0.498722C0.347537 42.2644 0.262085 43.7986 0.262085 45.353V54.2313H19.9818V40.7437Z" fill="#2980B9"/>
<path fill-rule="evenodd" clip-rule="evenodd" d="M82.4276 40.7437V54.2313H85.7142V44.1156C85.7142 42.9759 85.6254 41.8598 85.5433 40.7437H82.4276Z" fill="#2980B9"/>
<path fill-rule="evenodd" clip-rule="evenodd" d="M79.1409 47.4875C79.1409 51.2134 76.1993 54.2313 72.5676 54.2313C68.9359 54.2313 65.9944 51.2134 65.9944 47.4875C65.9944 43.7615 68.9359 40.7437 72.5676 40.7437C76.1993 40.7437 79.1409 43.7615 79.1409 47.4875Z" fill="#8C8C8C"/>
<path fill-rule="evenodd" clip-rule="evenodd" d="M76.676 47.4876C76.676 49.8142 74.8355 51.7025 72.5677 51.7025C70.2999 51.7025 68.4594 49.8142 68.4594 47.4876C68.4594 45.161 70.2999 43.2727 72.5677 43.2727C74.8355 43.2727 76.676 45.161 76.676 47.4876Z" fill="white"/>
<path fill-rule="evenodd" clip-rule="evenodd" d="M59.4211 49.1734C59.4211 51.0347 57.9487 52.5453 56.1345 52.5453C54.3203 52.5453 52.8479 51.0347 52.8479 49.1734C52.8479 47.3121 54.3203 45.8015 56.1345 45.8015C57.9487 45.8015 59.4211 47.3121 59.4211 49.1734Z" fill="#C0392B"/>
<path opacity="0.571012" fill-rule="evenodd" clip-rule="evenodd" d="M8.44661 35.6859C8.29214 35.6859 8.13438 35.6623 7.97663 35.6151C7.10896 35.3487 6.61268 34.4113 6.87232 33.5177C8.37102 28.3621 10.8261 23.6279 14.1686 19.4434C14.7471 18.7218 15.7856 18.6207 16.4824 19.2074C17.1825 19.8008 17.2843 20.863 16.7125 21.5812C13.6428 25.4184 11.3914 29.7581 10.0209 34.4821C9.80728 35.2138 9.15652 35.6859 8.44661 35.6859Z" fill="#E6E6E6"/>
</g>
<defs>
<clipPath id="clip0_11_3">
<rect width="86" height="68" fill="white"/>
</clipPath>
</defs>
</svg>
