<svg width="85" height="90" viewBox="0 0 85 90" fill="none" xmlns="http://www.w3.org/2000/svg">
<g clip-path="url(#clip0_21_2)">
<path fill-rule="evenodd" clip-rule="evenodd" d="M78.9482 81.4586H6.04419V70.5977H78.9482V81.4586Z" fill="#D7AA11"/>
<path fill-rule="evenodd" clip-rule="evenodd" d="M9.0811 81.4578H75.9106L81.9039 43.2891C82.5114 35.433 80.676 27.9862 76.596 21.7588C71.7526 14.3643 51.6093 0.0107422 42.5267 0.0107422H42.4942H42.4617C33.3824 0.182033 13.2358 14.3643 8.39569 21.7588C4.31244 27.9862 2.48034 35.433 3.08454 43.2891L9.0811 81.4578Z" fill="#D7AA11"/>
<path fill-rule="evenodd" clip-rule="evenodd" d="M75.8453 42.9147C76.3391 36.5189 74.978 30.0331 71.3527 24.5025C66.9187 17.7321 58.489 10.9473 42.4971 10.8718C26.502 10.9473 18.0724 17.7321 13.6383 24.5025C10.0131 30.0331 8.65197 36.5189 9.14573 42.9147L15.1553 81.458L33.3821 89.6015H51.6089L69.8357 81.458L75.8453 42.9147Z" fill="#ECBF1A"/>
<path fill-rule="evenodd" clip-rule="evenodd" d="M44.0145 54.309C44.0145 62.557 36.5334 69.2403 27.3079 69.2403C18.0792 69.2403 10.6014 62.557 10.6014 54.309C10.6014 46.0609 18.0792 39.3777 27.3079 39.3777C36.5334 39.3777 44.0145 46.0609 44.0145 54.309Z" fill="#D7AA11"/>
<path fill-rule="evenodd" clip-rule="evenodd" d="M74.3913 54.309C74.3913 62.557 66.9103 69.2403 57.6848 69.2403C48.456 69.2403 40.9782 62.557 40.9782 54.309C40.9782 46.0609 48.456 39.3777 57.6848 39.3777C66.9103 39.3777 74.3913 46.0609 74.3913 54.309Z" fill="#D7AA11"/>
<path fill-rule="evenodd" clip-rule="evenodd" d="M42.4955 67.8835L36.421 70.598L42.4955 65.1689L48.5701 70.598L42.4955 67.8835Z" fill="#323232"/>
<path fill-rule="evenodd" clip-rule="evenodd" d="M48.5723 78.7441H36.4233V81.4587H48.5723V78.7441Z" fill="#323232"/>
<path fill-rule="evenodd" clip-rule="evenodd" d="M21.2318 84.1725H63.76L69.8345 81.458H15.1573L21.2318 84.1725Z" fill="#D7AA11"/>
<path fill-rule="evenodd" clip-rule="evenodd" d="M36.4204 54.3088C36.4204 58.8059 32.3404 62.4524 27.3086 62.4524C22.2735 62.4524 18.1935 58.8059 18.1935 54.3088C18.1935 49.8117 22.2735 46.1653 27.3086 46.1653C32.3404 46.1653 36.4204 49.8117 36.4204 54.3088Z" fill="white"/>
<path fill-rule="evenodd" clip-rule="evenodd" d="M27.3073 52.2729C26.0469 52.2729 25.0302 53.1846 25.0302 54.3081C25.0302 55.4346 26.0469 56.3462 27.3073 56.3462C28.5677 56.3462 29.5844 55.4346 29.5844 54.3081C29.5844 53.1846 28.5677 52.2729 27.3073 52.2729Z" fill="#323232"/>
<path fill-rule="evenodd" clip-rule="evenodd" d="M24.271 65.1687H21.2337V43.4497H24.271V65.1687Z" fill="#D7AA11"/>
<path fill-rule="evenodd" clip-rule="evenodd" d="M33.3828 65.1687H30.3455V43.4497H33.3828V65.1687Z" fill="#D7AA11"/>
<path fill-rule="evenodd" clip-rule="evenodd" d="M66.7969 54.3088C66.7969 58.8059 62.7169 62.4524 57.6851 62.4524C52.6501 62.4524 48.5701 58.8059 48.5701 54.3088C48.5701 49.8117 52.6501 46.1653 57.6851 46.1653C62.7169 46.1653 66.7969 49.8117 66.7969 54.3088Z" fill="white"/>
<path fill-rule="evenodd" clip-rule="evenodd" d="M57.6841 52.2729C56.4237 52.2729 55.407 53.1846 55.407 54.3081C55.407 55.4346 56.4237 56.3462 57.6841 56.3462C58.9445 56.3462 59.9613 55.4346 59.9613 54.3081C59.9613 53.1846 58.9445 52.2729 57.6841 52.2729Z" fill="#323232"/>
<path fill-rule="evenodd" clip-rule="evenodd" d="M54.6469 65.1687H51.6096V43.4497H54.6469V65.1687Z" fill="#D7AA11"/>
<path fill-rule="evenodd" clip-rule="evenodd" d="M63.7586 65.1687H60.7214V43.4497H63.7586V65.1687Z" fill="#D7AA11"/>
<path fill-rule="evenodd" clip-rule="evenodd" d="M45.5331 5.44083C45.5331 6.9389 44.1721 8.15535 42.4959 8.15535C40.8165 8.15535 39.4586 6.9389 39.4586 5.44083C39.4586 3.94277 40.8165 2.72632 42.4959 2.72632C44.1721 2.72632 45.5331 3.94277 45.5331 5.44083Z" fill="#ECBF1A"/>
<path fill-rule="evenodd" clip-rule="evenodd" d="M81.7064 64.0856L75.6904 63.3307L76.9832 55.1001L82.9993 55.8549L81.7064 64.0856Z" fill="#D7AA11"/>
<path fill-rule="evenodd" clip-rule="evenodd" d="M3.28176 64.0551L1.98889 55.8244L8.00494 55.0696L9.29781 63.3002L3.28176 64.0551Z" fill="#D7AA11"/>
<path fill-rule="evenodd" clip-rule="evenodd" d="M83.43 53.1119L77.414 52.3571L78.7068 44.1265L84.7229 44.8813L83.43 53.1119Z" fill="#D7AA11"/>
<path fill-rule="evenodd" clip-rule="evenodd" d="M1.55813 53.0812L0.265259 44.8505L6.28131 44.0957L7.57418 52.3263L1.55813 53.0812Z" fill="#D7AA11"/>
<path opacity="0.25" fill-rule="evenodd" clip-rule="evenodd" d="M16.6752 38.0198C15.8371 38.0198 15.155 37.413 15.155 36.6611C15.155 25.4343 25.3745 16.3008 37.9393 16.3008C38.7774 16.3008 39.4563 16.9076 39.4563 17.6595C39.4563 18.4085 38.7774 19.0153 37.9393 19.0153C27.0506 19.0153 18.1955 26.9324 18.1955 36.6611C18.1955 37.413 17.5133 38.0198 16.6752 38.0198Z" fill="white"/>
</g>
<defs>
<clipPath id="clip0_21_2">
<rect width="85" height="90" fill="white"/>
</clipPath>
</defs>
</svg>
